<svg width="232" height="32" viewBox="0 0 232 32" fill="none" xmlns="http://www.w3.org/2000/svg">
<g opacity="0.8" clip-path="url(#clip0_111_145)">
<path d="M29.6293 21.024L29.3293 19.524H25.9773L25.444 21.0133L22.7573 21.0187C24.0364 17.9429 25.3181 14.8682 26.6027 11.7947C26.8213 11.2733 27.2093 11.008 27.7813 11.0107C28.2187 11.0147 28.932 11.0147 29.9227 11.012L32 21.02L29.6293 21.024ZM26.732 17.4693H28.892L28.0853 13.7093L26.732 17.4693ZM9.41333 11.0093L12.1147 11.012L7.93867 21.0253L5.204 21.0227C4.51633 18.3778 3.83722 15.7306 3.16667 13.0813C3.03333 12.5533 2.76933 12.184 2.26133 12.0093C1.51097 11.7579 0.757115 11.517 0 11.2867L0 11.0133H4.316C5.06267 11.0133 5.49867 11.3747 5.63867 12.116C5.78 12.8587 6.13467 14.7493 6.70533 17.788L9.41333 11.0093ZM15.8267 11.012L13.6907 21.0227L11.12 21.02L13.2533 11.0093L15.8267 11.012ZM21.04 10.8267C21.8093 10.8267 22.7787 11.0667 23.336 11.2867L22.8853 13.3627C22.3813 13.16 21.552 12.8867 20.8547 12.896C19.8413 12.9133 19.2147 13.3387 19.2147 13.7467C19.2147 14.4107 20.3027 14.7453 21.4227 15.4707C22.7013 16.2973 22.8693 17.04 22.8533 17.8467C22.836 19.5213 21.4227 21.1733 18.4413 21.1733C17.0813 21.1533 16.5907 21.0387 15.4813 20.6453L15.9507 18.4787C17.08 18.952 17.5587 19.1027 18.524 19.1027C19.408 19.1027 20.1667 18.7453 20.1733 18.1227C20.1787 17.68 19.9067 17.46 18.9147 16.9133C17.9227 16.3653 16.5307 15.6067 16.5493 14.084C16.572 12.1347 18.4187 10.8267 21.0413 10.8267H21.04Z" fill="#F9FAFB"/>
</g>
<g opacity="0.8">
<path d="M220 6.25C218.072 6.25 216.187 6.82183 214.583 7.89317C212.98 8.96451 211.73 10.4873 210.992 12.2688C210.254 14.0504 210.061 16.0108 210.437 17.9021C210.814 19.7934 211.742 21.5307 213.106 22.8943C214.469 24.2579 216.207 25.1865 218.098 25.5627C219.989 25.9389 221.95 25.7458 223.731 25.0078C225.513 24.2699 227.035 23.0202 228.107 21.4168C229.178 19.8134 229.75 17.9284 229.75 16C229.747 13.415 228.719 10.9366 226.891 9.10872C225.063 7.28084 222.585 6.25273 220 6.25ZM220 24.25C218.368 24.25 216.773 23.7661 215.417 22.8596C214.06 21.9531 213.002 20.6646 212.378 19.1571C211.754 17.6496 211.59 15.9908 211.909 14.3905C212.227 12.7902 213.013 11.3202 214.166 10.1664C215.32 9.01259 216.79 8.22685 218.391 7.90852C219.991 7.59019 221.65 7.75357 223.157 8.37799C224.665 9.00242 225.953 10.0598 226.86 11.4165C227.766 12.7733 228.25 14.3683 228.25 16C228.248 18.1873 227.378 20.2843 225.831 21.8309C224.284 23.3775 222.187 24.2475 220 24.25ZM217.1 13.3994C217.524 14.2007 217.746 15.0935 217.746 16C217.746 16.9065 217.524 17.7993 217.1 18.6006C217.055 18.6898 216.993 18.7691 216.917 18.8339C216.842 18.8988 216.754 18.9478 216.658 18.9782C216.563 19.0085 216.463 19.0196 216.364 19.0108C216.264 19.002 216.168 18.9734 216.08 18.9267C215.991 18.88 215.913 18.8162 215.85 18.739C215.787 18.6618 215.74 18.5728 215.711 18.4771C215.683 18.3814 215.674 18.281 215.685 18.1818C215.696 18.0826 215.726 17.9866 215.775 17.8994C216.089 17.3155 216.253 16.6629 216.253 16C216.253 15.3371 216.089 14.6845 215.775 14.1006C215.687 13.9253 215.671 13.7224 215.73 13.5355C215.79 13.3486 215.921 13.1925 216.094 13.1008C216.268 13.009 216.47 12.9889 216.658 13.0447C216.846 13.1005 217.005 13.2279 217.1 13.3994ZM222.35 10.3994C223.273 12.1231 223.755 14.0478 223.755 16.0028C223.755 17.9578 223.273 19.8826 222.35 21.6063C222.25 21.7702 222.092 21.8896 221.906 21.9399C221.721 21.9902 221.523 21.9676 221.354 21.8766C221.185 21.7856 221.058 21.6333 220.997 21.451C220.937 21.2687 220.949 21.0702 221.031 20.8966C221.838 19.3905 222.26 17.7085 222.26 16C222.26 14.2915 221.838 12.6095 221.031 11.1034C220.938 10.9279 220.917 10.7223 220.975 10.5319C221.033 10.3415 221.164 10.1819 221.34 10.0881C221.515 9.99439 221.721 9.97422 221.911 10.0321C222.102 10.0899 222.261 10.221 222.355 10.3966L222.35 10.3994ZM219.725 11.8994C220.399 13.162 220.751 14.5709 220.751 16.0019C220.751 17.4328 220.399 18.8417 219.725 20.1044C219.68 20.1931 219.618 20.2718 219.541 20.3361C219.465 20.4004 219.377 20.4488 219.282 20.4787C219.187 20.5086 219.087 20.5192 218.988 20.51C218.889 20.5008 218.793 20.472 218.705 20.4252C218.617 20.3784 218.539 20.3145 218.476 20.2374C218.413 20.1603 218.366 20.0713 218.338 19.9759C218.31 19.8804 218.301 19.7802 218.312 19.6812C218.323 19.5823 218.353 19.4864 218.402 19.3994C218.959 18.3538 219.251 17.1869 219.251 16.0019C219.251 14.8168 218.959 13.65 218.402 12.6044C218.353 12.5173 218.323 12.4215 218.312 12.3225C218.301 12.2235 218.31 12.1234 218.338 12.0279C218.366 11.9324 218.413 11.8435 218.476 11.7663C218.539 11.6892 218.617 11.6254 218.705 11.5786C218.793 11.5318 218.889 11.5029 218.988 11.4937C219.087 11.4845 219.187 11.4952 219.282 11.5251C219.377 11.5549 219.465 11.6034 219.541 11.6677C219.618 11.7319 219.68 11.8107 219.725 11.8994Z" fill="#F9FAFB"/>
</g>
<defs>
<clipPath id="clip0_111_145">
<rect width="32" height="32" fill="white"/>
</clipPath>
</defs>
</svg>
